<svg xmlns="http://www.w3.org/2000/svg" version="1.1" xmlns:xlink="http://www.w3.org/1999/xlink" xmlns:svgjs="http://svgjs.dev/svgjs" width="308.7612359841165" height="304.915625"  viewBox="0 0 1000 1000"><rect width="1000" height="1000" fill="#000000"></rect><g transform="matrix(0.7,0,0,0.7,150.0000000000001,106.25)"><svg viewBox="0 0 320 360" data-background-color="#ffffff" preserveAspectRatio="xMidYMid meet" height="1125" width="1000" xmlns="http://www.w3.org/2000/svg" xmlns:xlink="http://www.w3.org/1999/xlink"><g id="tight-bounds" transform="matrix(1,0,0,1,0,0)"><svg viewBox="0 0 320 360" height="360" width="320"><g><svg></svg></g><g><svg viewBox="0 0 320 360" height="360" width="320"><g><path xmlns="http://www.w3.org/2000/svg" d="M20.961 227.22l3.726 4.658-1.863-6.056c-0.466-2.795-3.726 0.466-1.863 1.398M25.153 224.425c1.397 2.329 2.795 4.658 2.795 6.987 0 3.261 2.795 4.658 5.123 5.589-3.261-3.726-5.124-13.974-7.918-12.576M204.017 26.929c7.918 0 15.371-0.932 23.756 0.931 20.495 5.124 37.729 15.371 49.374 29.811l32.606 52.169c1.397 13.042 4.192 27.482 3.726 43.319 3.261 0 2.795-4.658 6.521-5.59-3.726 9.316-5.59 20.961-6.521 34.469-2.329-7.453 0-18.632 0.466-24.687-3.261 5.124-5.124 1.397-5.124-0.932 0.466-3.726-1.397-3.261-2.795-4.658-5.124-4.658-8.384-9.782-12.11-17.7 2.329-6.055 2.795-14.905-4.658-19.563-2.329-1.397-5.124-3.726-6.521-7.453-1.863-5.124-5.124-11.179-4.193-19.097 0.466-2.329-6.987 5.124-11.179 1.863-18.166-12.576-36.332-27.016-58.224-39.127-11.645 0-20.029-4.192-24.221-9.316-3.726-4.658-0.932-10.713 4.658-11.179 3.261 0 6.987-0.932 9.782 0.932 0.466-1.863 2.329-4.192 4.657-4.192M157.904 16.215l0.932 0.466c4.658 0.932 6.987 7.453 12.11 5.124 0 3.261 0.466 6.521-0.466 8.85-1.397 3.726-5.59 3.726-8.85 3.726-31.208-1.863-49.374 11.179-68.471 22.358-5.124 3.261-10.713 5.59-14.906 9.782-20.029 18.632-41.921 35.866-47.045 70.335l-4.192 38.195c-0.466 4.192-5.124 8.384-4.192 13.508l3.26 22.824c-3.261-3.261-5.124 0.932-4.192 2.795 0.466 1.397 2.329 6.055 5.124 1.863 3.726 6.987 7.453 20.495 12.576 26.55 15.837 18.632 36.332 35.4 53.101 52.169 4.192-0.932 7.453-0.932 8.384-3.727 1.397 2.795-1.397 5.59-3.726 6.056 7.453 4.658 15.837 8.85 27.016 9.781 14.44 0.932 27.948 3.261 40.524 6.522 6.521-1.863 13.042-2.795 20.029-3.261 2.329 0 3.726-3.726 6.521-4.658l0.466-4.658c2.795 4.192 2.329-1.397 0.466-4.192 3.261 2.795 4.192 5.124 5.589 6.987 0-1.397 3.726-6.521 3.727-0.466l0.931-6.055c1.397-0.932 1.863 5.124 3.261 0.931 1.397-4.192 4.192-0.932 6.987-2.329-0.932 1.863-0.466 5.59 2.794 3.261l3.727-3.261c2.329 5.59 6.055 3.261 7.918 2.329 20.495-13.042 40.99-28.413 60.553-43.784l-0.466 6.055 2.329-7.453c2.329 2.329 4.192 0.466 5.124-0.931 2.795-4.658 6.521-9.316 12.577-13.508-7.453 20.029-16.303 35.866-27.482 48.908l-4.658 5.59c0 3.261-0.932 7.453-4.658 7.918-1.863 0.466-5.59-0.932-8.384 1.863-1.397 1.863 3.261 5.59-0.466 2.795-3.261-2.329-6.521 0-10.248 0.932-2.795 0.932 1.863 3.726 2.795 5.589 0.932 1.863 1.863 3.726 1.398 6.056l-5.124-5.59c-6.055 3.261-9.782 9.316-14.906 13.974-2.329 1.863-1.397 5.124-1.397 7.918-3.261 0-6.987-0.932-8.85 0.932-1.397 1.863-0.932 4.658-0.932 7.453-4.658-0.466-5.124-7.453-9.315-6.056-4.192 0.932-8.85 1.397-12.577 3.727 2.795 5.59-4.658 2.329-3.726 3.26-6.987-4.192-13.042-7.453-20.495-4.658-15.837-5.124-35.4-2.795-49.84-0.931 0-2.329 0.466-4.658-0.466-5.124-0.932 2.329-3.726 1.397-3.26 1.397-8.85-6.055-17.7-9.782-27.016-14.905-8.384 0.932-16.303-3.261-18.632-5.59-6.521-6.055-13.974-2.795-20.029-4.192-13.042-3.261-17.7-16.769-19.098-26.084-0.932-4.658-4.658-6.521-6.055-6.056-6.055-19.563-15.371-37.263-22.824-55.429-1.863-4.658-1.397-9.316-1.397-14.44 2.329 0.932 4.658 0.466 4.192-2.794-2.329-15.371-7.918-27.016-13.974-38.195 3.261-15.837 3.726-34.469 11.179-48.443 6.521-12.576 18.632-19.098 27.016-29.811 2.795-3.726 2.795-8.85 5.59-12.11 9.316-9.316 18.632-19.098 28.879-27.482 4.658-3.726 10.247 0 17.234-1.397 2.329-8.384 11.645-15.837 20.495-13.508 3.726 0.932 11.179-8.85 13.508-9.782 3.726-1.397 1.863 3.726 1.863 6.987 8.85-6.987 20.961-10.713 32.14-14.906" fill="#ffffff" fill-rule="nonzero" stroke="none" stroke-width="1" stroke-linecap="butt" stroke-linejoin="miter" stroke-miterlimit="10" stroke-dasharray="" stroke-dashoffset="0" font-family="none" font-weight="none" font-size="none" text-anchor="none" style="mix-blend-mode: normal" data-fill-palette-color="tertiary"></path></g><g transform="matrix(1,0,0,1,114.85202801451996,90)"><svg viewBox="0 0 90.29594397096008 180" height="180" width="90.29594397096008"><g><svg viewBox="0 0 90.29594397096008 180" height="180" width="90.29594397096008"><g><svg viewBox="0 0 149.96305418719214 298.9431038272978" height="180" width="90.29594397096008"><g transform="matrix(1,0,0,1,0,118.94310382729782)"><svg viewBox="0 0 149.96305418719214 180" height="180" width="149.96305418719214"><g id="textblocktransform"><svg viewBox="0 0 149.96305418719214 180" height="180" width="149.96305418719214" id="textblock"><g><svg viewBox="0 0 149.96305418719214 180" height="180" width="149.96305418719214"><g transform="matrix(1,0,0,1,0,0)"><svg width="149.96305418719214" viewBox="0.9800000190734863 -38.5 33.029998779296875 39.650001525878906" height="180" data-palette-color="#000000"><path d="M6.62-0.37L6.62-0.37Q5.47 0.49 4.31 0.49 3.15 0.49 2.6 0.29 2.05 0.1 1.68-0.24L1.68-0.24Q0.98-0.9 0.98-2L0.98-2Q0.98-2.56 1.25-2.76L1.25-2.76Q1.86-2.34 2.42-2.34 2.98-2.34 3.37-2.43 3.76-2.51 4.2-2.81L4.2-2.81Q5.05-3.39 6.18-5.52L6.18-5.52Q11.5-15.67 11.79-16.8L11.79-16.8Q11.87-17.09 11.87-17.26L11.87-17.26Q11.91-18.63 9.5-19.46L9.5-19.46Q12.35-20.17 13.67-21.73L13.67-21.73Q14.14-22.27 14.5-22.92L14.5-22.92 20.43-33.91Q18.48-34.72 16.89-34.72 15.31-34.72 14.34-34.53 13.38-34.35 12.5-33.96L12.5-33.96Q9.11-32.47 7.81-28.13L7.81-28.13Q7.35-26.59 7.35-25.17 7.35-23.75 7.86-23.12L7.86-23.12Q7.3-22.66 6.7-22.66 6.1-22.66 5.59-22.89 5.08-23.12 4.69-23.58L4.69-23.58Q3.81-24.61 3.81-26.18 3.81-27.76 4.2-28.64L4.2-28.64Q2.91-29.49 2.91-30.86 2.91-32.23 3.83-33.2L3.83-33.2Q3.05-34.2 3.05-35.05 3.05-35.89 3.28-36.49 3.52-37.08 3.96-37.55L3.96-37.55Q4.86-38.5 6.15-38.5L6.15-38.5Q6.79-38.5 7.32-38.23L7.32-38.23Q7.23-37.7 7.23-37.16L7.23-37.16Q7.23-36.04 8.25-36.04L8.25-36.04Q9.01-36.04 10.35-36.65L10.35-36.65Q12.94-37.84 16.61-37.84 20.29-37.84 22.68-36.62L22.68-36.62Q24.12-37.84 25.85-37.84 27.59-37.84 28.83-37.01L28.83-37.01Q29.86-37.84 30.87-37.84 31.88-37.84 32.39-37.65 32.89-37.45 33.25-37.11L33.25-37.11Q34.01-36.38 34.01-35.35L34.01-35.35Q34.01-34.79 33.74-34.59L33.74-34.59Q33.11-35.01 32.43-35.01 31.76-35.01 31.32-34.85 30.88-34.69 30.49-34.33L30.49-34.33Q29.76-33.62 28.69-31.3L28.69-31.3Q25.1-23.66 24.82-22.75 24.54-21.85 24.54-21.44L24.54-21.44Q24.54-20.07 26.27-19.46L26.27-19.46Q24.29-18.99 22.95-17.85 21.61-16.7 20.61-14.7L20.61-14.7 15.23-3.93Q17.46-2.64 20.61-2.64L20.61-2.64Q24.44-2.64 26.86-5.96L26.86-5.96Q28.32-7.93 28.76-10.74L28.76-10.74Q28.86-11.45 28.86-12.52 28.86-13.6 28.34-14.23L28.34-14.23Q28.91-14.7 29.5-14.7 30.1-14.7 30.62-14.45 31.13-14.21 31.54-13.72L31.54-13.72Q32.4-12.72 32.4-11.19 32.4-9.67 31.98-8.69L31.98-8.69Q33.3-7.84 33.3-6.47 33.3-5.1 32.35-4.15L32.35-4.15Q33.15-3.13 33.15-2.29 33.15-1.46 32.92-0.87 32.69-0.27 32.28 0.2L32.28 0.2Q31.35 1.15 30.05 1.15L30.05 1.15Q29.42 1.15 28.88 0.88L28.88 0.88Q28.98 0.34 28.98-0.2L28.98-0.2Q28.98-1.32 27.95-1.32L27.95-1.32Q27.2-1.32 25.85-0.71L25.85-0.71Q23.27 0.49 19.6 0.49 15.94 0.49 13.31-0.46L13.31-0.46Q11.65 0.49 9.8 0.49 7.96 0.49 6.62-0.37ZM10.84-6.47L22.63-30.52Q20.95-30.13 19.6-27.39L19.6-27.39 17.31-22.83Q16.38-21.02 15.97-20.42 15.55-19.82 14.95-19.57 14.36-19.31 13.35-19.12L13.35-19.12Q13.84-18.92 14.18-18.53 14.53-18.14 14.48-17.71 14.43-17.29 14.27-16.83 14.11-16.38 13.84-15.78 13.57-15.19 13.18-14.4L13.18-14.4 11.33-10.57Q10.4-8.59 10.4-7.86L10.4-7.86Q10.4-6.84 10.84-6.47L10.84-6.47Z" opacity="1" transform="matrix(1,0,0,1,0,0)" fill="#ffffff" class="wordmark-text-0" data-fill-palette-color="primary" id="text-0"></path></svg></g></svg></g></svg></g></svg></g><g transform="matrix(1,0,0,1,28.6429433497537,0)"><svg viewBox="0 0 92.67716748768474 92.67678382729783" height="92.67678382729783" width="92.67716748768474"><g><svg xmlns="http://www.w3.org/2000/svg" xmlns:xlink="http://www.w3.org/1999/xlink" version="1.0" x="0" y="0" viewBox="4.667734146118164 4.6859588623046875 90.3050308227539 90.30465698242188" enable-background="new 0 0 100 100" xml:space="preserve" height="92.67678382729783" width="92.67716748768474" class="icon-icon-0" data-fill-palette-color="accent" id="icon-0"><path d="M17.504 35.743c-1.334 8.611 0.522 17.134 5.093 23.382 3.514 4.801 8.413 7.905 13.796 8.739 5.677 0.88 11.253-0.429 15.703-3.685 1.248-0.912 2.36-1.946 3.326-3.076-2.222 0.978-4.814 1.267-7.626 0.831-11.717-1.816-19.673-13.464-17.735-25.964 0.934-6.03 4.384-11.497 9.713-15.397 6.768-4.952 15.953-6.97 25.201-5.537 7.474 1.158 17.67 5.964 25.56 15.213 0 0-22.835-39.421-56.115-20.356C23.689 16.04 18.653 28.323 17.504 35.743z" fill="#ffffff" data-fill-palette-color="accent"></path><path d="M82.544 65.256c1.659-8.555 0.125-17.141-4.207-23.557-3.331-4.931-8.109-8.217-13.457-9.253-5.639-1.094-11.261 0.004-15.83 3.091-1.282 0.863-2.431 1.854-3.44 2.947 2.257-0.894 4.859-1.084 7.652-0.543 11.64 2.257 19.151 14.196 16.744 26.616-1.161 5.989-4.815 11.324-10.288 15.019-6.949 4.692-16.205 6.364-25.393 4.582C26.902 82.719 16.894 77.532 9.358 67.992c0 0 21.331 40.255 55.307 22.457C75.621 84.712 81.115 72.628 82.544 65.256z" fill="#ffffff" data-fill-palette-color="accent"></path><path d="M35.726 82.88c8.611 1.334 17.133-0.522 23.381-5.094 4.801-3.514 7.905-8.413 8.74-13.796 0.879-5.676-0.429-11.253-3.686-15.702-0.912-1.248-1.946-2.36-3.076-3.327 0.979 2.222 1.267 4.815 0.831 7.626-1.816 11.717-13.463 19.673-25.965 17.736-6.029-0.934-11.497-4.385-15.395-9.713-4.952-6.768-6.971-15.954-5.538-25.202 1.158-7.474 5.964-17.67 15.213-25.559 0 0-39.421 22.835-20.356 56.115C16.022 76.695 28.305 81.73 35.726 82.88z" fill="#ffffff" data-fill-palette-color="accent"></path><path d="M90.432 35.718c-5.738-10.955-17.822-16.45-25.194-17.879-8.554-1.659-17.141-0.125-23.557 4.208-4.931 3.331-8.217 8.108-9.254 13.456-1.094 5.64 0.004 11.261 3.092 15.83 0.863 1.282 1.854 2.431 2.946 3.441-0.894-2.257-1.084-4.859-0.542-7.652 2.257-11.64 14.196-19.151 26.615-16.744 5.99 1.161 11.324 4.816 15.019 10.289 4.693 6.949 6.363 16.204 4.583 25.392-1.44 7.423-6.626 17.431-16.167 24.966C67.973 91.025 108.228 69.694 90.432 35.718z" fill="#ffffff" data-fill-palette-color="accent"></path></svg></g></svg></g><g></g></svg></g></svg></g></svg></g></svg></g><defs></defs></svg><rect width="320" height="360" fill="none" stroke="none" visibility="hidden"></rect></g></svg></g></svg>